<?xml version="1.0" encoding="UTF-8" standalone="no"?>
<!DOCTYPE svg PUBLIC "-//W3C//DTD SVG 1.1//EN"
 "http://www.w3.org/Graphics/SVG/1.1/DTD/svg11.dtd">
<!-- Generated by graphviz version 10.0.1 (20240210.2158)
 -->
<!-- Title: dependency&#45;cruiser output Pages: 1 -->
<svg width="501pt" height="968pt"
 viewBox="0.00 0.00 501.25 968.00" xmlns="http://www.w3.org/2000/svg" xmlns:xlink="http://www.w3.org/1999/xlink">
<g id="graph0" class="graph" transform="scale(1 1) rotate(0) translate(4 964)">
<title>dependency&#45;cruiser output</title>
<polygon fill="white" stroke="none" points="-4,4 -4,-964 497.25,-964 497.25,4 -4,4"/>
<g id="clust1" class="cluster">
<title>cluster_src</title>
<path fill="#ffffff" stroke="black" stroke-width="2" d="M20,-8C20,-8 473.25,-8 473.25,-8 479.25,-8 485.25,-14 485.25,-20 485.25,-20 485.25,-940 485.25,-940 485.25,-946 479.25,-952 473.25,-952 473.25,-952 20,-952 20,-952 14,-952 8,-946 8,-940 8,-940 8,-20 8,-20 8,-14 14,-8 20,-8"/>
<text text-anchor="middle" x="246.62" y="-939.45" font-family="Helvetica,sans-Serif" font-weight="bold" font-size="9.00">src</text>
</g>
<g id="clust2" class="cluster">
<title>cluster_src/app</title>
<path fill="#ffffff" stroke="black" stroke-width="2" d="M46.75,-754C46.75,-754 253.25,-754 253.25,-754 259.25,-754 265.25,-760 265.25,-766 265.25,-766 265.25,-914 265.25,-914 265.25,-920 259.25,-926 253.25,-926 253.25,-926 46.75,-926 46.75,-926 40.75,-926 34.75,-920 34.75,-914 34.75,-914 34.75,-766 34.75,-766 34.75,-760 40.75,-754 46.75,-754"/>
<text text-anchor="middle" x="150" y="-913.45" font-family="Helvetica,sans-Serif" font-weight="bold" font-size="9.00">app</text>
</g>
<g id="clust3" class="cluster">
<title>cluster_src/app/providers</title>
<path fill="#ffffff" stroke="black" stroke-width="2" d="M143.5,-788C143.5,-788 245.25,-788 245.25,-788 251.25,-788 257.25,-794 257.25,-800 257.25,-800 257.25,-888 257.25,-888 257.25,-894 251.25,-900 245.25,-900 245.25,-900 143.5,-900 143.5,-900 137.5,-900 131.5,-894 131.5,-888 131.5,-888 131.5,-800 131.5,-800 131.5,-794 137.5,-788 143.5,-788"/>
<text text-anchor="middle" x="194.38" y="-887.45" font-family="Helvetica,sans-Serif" font-weight="bold" font-size="9.00">providers</text>
</g>
<g id="clust4" class="cluster">
<title>cluster_src/features</title>
<path fill="#ffffff" stroke="black" stroke-width="2" d="M144.25,-364C144.25,-364 244.5,-364 244.5,-364 250.5,-364 256.5,-370 256.5,-376 256.5,-376 256.5,-584 256.5,-584 256.5,-590 250.5,-596 244.5,-596 244.5,-596 144.25,-596 144.25,-596 138.25,-596 132.25,-590 132.25,-584 132.25,-584 132.25,-376 132.25,-376 132.25,-370 138.25,-364 144.25,-364"/>
<text text-anchor="middle" x="194.38" y="-583.45" font-family="Helvetica,sans-Serif" font-weight="bold" font-size="9.00">features</text>
</g>
<g id="clust5" class="cluster">
<title>cluster_src/pages</title>
<path fill="#ffffff" stroke="black" stroke-width="2" d="M28,-176C28,-176 111.5,-176 111.5,-176 117.5,-176 123.5,-182 123.5,-188 123.5,-188 123.5,-636 123.5,-636 123.5,-642 117.5,-648 111.5,-648 111.5,-648 28,-648 28,-648 22,-648 16,-642 16,-636 16,-636 16,-188 16,-188 16,-182 22,-176 28,-176"/>
<text text-anchor="middle" x="69.75" y="-635.45" font-family="Helvetica,sans-Serif" font-weight="bold" font-size="9.00">pages</text>
</g>
<g id="clust6" class="cluster">
<title>cluster_src/pages/(auth)</title>
<path fill="#ffffff" stroke="black" stroke-width="2" d="M46.75,-184C46.75,-184 92.75,-184 92.75,-184 98.75,-184 104.75,-190 104.75,-196 104.75,-196 104.75,-224 104.75,-224 104.75,-230 98.75,-236 92.75,-236 92.75,-236 46.75,-236 46.75,-236 40.75,-236 34.75,-230 34.75,-224 34.75,-224 34.75,-196 34.75,-196 34.75,-190 40.75,-184 46.75,-184"/>
<text text-anchor="middle" x="69.75" y="-223.45" font-family="Helvetica,sans-Serif" font-weight="bold" font-size="9.00">(auth)</text>
</g>
<g id="clust7" class="cluster">
<title>cluster_src/pages/(root)</title>
<path fill="#ffffff" stroke="black" stroke-width="2" d="M36,-244C36,-244 103.5,-244 103.5,-244 109.5,-244 115.5,-250 115.5,-256 115.5,-256 115.5,-554 115.5,-554 115.5,-560 109.5,-566 103.5,-566 103.5,-566 36,-566 36,-566 30,-566 24,-560 24,-554 24,-554 24,-256 24,-256 24,-250 30,-244 36,-244"/>
<text text-anchor="middle" x="69.75" y="-553.45" font-family="Helvetica,sans-Serif" font-weight="bold" font-size="9.00">(root)</text>
</g>
<g id="clust8" class="cluster">
<title>cluster_src/pages/(root)/posts</title>
<path fill="#ffffff" stroke="black" stroke-width="2" d="M44,-252C44,-252 95.5,-252 95.5,-252 101.5,-252 107.5,-258 107.5,-264 107.5,-264 107.5,-292 107.5,-292 107.5,-298 101.5,-304 95.5,-304 95.5,-304 44,-304 44,-304 38,-304 32,-298 32,-292 32,-292 32,-264 32,-264 32,-258 38,-252 44,-252"/>
<text text-anchor="middle" x="69.75" y="-291.45" font-family="Helvetica,sans-Serif" font-weight="bold" font-size="9.00">posts</text>
</g>
<g id="clust9" class="cluster">
<title>cluster_src/shared</title>
<path fill="#ffffff" stroke="black" stroke-width="2" d="M285.25,-351C285.25,-351 465.25,-351 465.25,-351 471.25,-351 477.25,-357 477.25,-363 477.25,-363 477.25,-391 477.25,-391 477.25,-397 471.25,-403 465.25,-403 465.25,-403 285.25,-403 285.25,-403 279.25,-403 273.25,-397 273.25,-391 273.25,-391 273.25,-363 273.25,-363 273.25,-357 279.25,-351 285.25,-351"/>
<text text-anchor="middle" x="375.25" y="-390.45" font-family="Helvetica,sans-Serif" font-weight="bold" font-size="9.00">shared</text>
</g>
<g id="clust10" class="cluster">
<title>cluster_src/widgets</title>
<path fill="#ffffff" stroke="black" stroke-width="2" d="M149.5,-16C149.5,-16 239.25,-16 239.25,-16 245.25,-16 251.25,-22 251.25,-28 251.25,-28 251.25,-236 251.25,-236 251.25,-242 245.25,-248 239.25,-248 239.25,-248 149.5,-248 149.5,-248 143.5,-248 137.5,-242 137.5,-236 137.5,-236 137.5,-28 137.5,-28 137.5,-22 143.5,-16 149.5,-16"/>
<text text-anchor="middle" x="194.38" y="-235.45" font-family="Helvetica,sans-Serif" font-weight="bold" font-size="9.00">widgets</text>
</g>
<!-- src/app/index.css -->
<g id="node1" class="node">
<title>src/app/index.css</title>
<g id="a_node1"><a xlink:href="src/app/index.css" xlink:title="index.css">
<path fill="#ffffcc" stroke="black" d="M215.58,-779.88C215.58,-779.88 173.17,-779.88 173.17,-779.88 170.21,-779.88 167.25,-776.92 167.25,-773.96 167.25,-773.96 167.25,-768.04 167.25,-768.04 167.25,-765.08 170.21,-762.12 173.17,-762.12 173.17,-762.12 215.58,-762.12 215.58,-762.12 218.54,-762.12 221.5,-765.08 221.5,-768.04 221.5,-768.04 221.5,-773.96 221.5,-773.96 221.5,-776.92 218.54,-779.88 215.58,-779.88"/>
<text text-anchor="start" x="175.25" y="-767.33" font-family="Helvetica,sans-Serif" font-size="9.00">index.css</text>
</a>
</g>
</g>
<!-- src/app/index.tsx -->
<g id="node2" class="node">
<title>src/app/index.tsx</title>
<g id="a_node2"><a xlink:href="src/app/index.tsx" xlink:title="index.tsx">
<path fill="#bbfeff" stroke="black" d="M90.83,-796.88C90.83,-796.88 48.67,-796.88 48.67,-796.88 45.71,-796.88 42.75,-793.92 42.75,-790.96 42.75,-790.96 42.75,-785.04 42.75,-785.04 42.75,-782.08 45.71,-779.12 48.67,-779.12 48.67,-779.12 90.83,-779.12 90.83,-779.12 93.79,-779.12 96.75,-782.08 96.75,-785.04 96.75,-785.04 96.75,-790.96 96.75,-790.96 96.75,-793.92 93.79,-796.88 90.83,-796.88"/>
<text text-anchor="start" x="51.75" y="-784.33" font-family="Helvetica,sans-Serif" font-size="9.00">index.tsx</text>
</a>
</g>
</g>
<!-- src/app/index.tsx&#45;&gt;src/app/index.css -->
<g id="edge1" class="edge">
<title>src/app/index.tsx&#45;&gt;src/app/index.css</title>
<path fill="none" stroke="#000000" stroke-width="2" stroke-opacity="0.200000" d="M97.06,-784.35C114.92,-781.88 138.74,-778.57 158.22,-775.87"/>
<polygon fill="#000000" fill-opacity="0.200000" stroke="#000000" stroke-width="2" stroke-opacity="0.200000" points="158.46,-777.96 164.11,-775.06 157.88,-773.8 158.46,-777.96"/>
</g>
<!-- src/app/providers/AlertDialogProvider.tsx -->
<g id="node3" class="node">
<title>src/app/providers/AlertDialogProvider.tsx</title>
<g id="a_node3"><a xlink:href="src/app/providers/AlertDialogProvider.tsx" xlink:title="AlertDialogProvider.tsx">
<path fill="#bbfeff" stroke="black" d="M243.33,-843.88C243.33,-843.88 145.42,-843.88 145.42,-843.88 142.46,-843.88 139.5,-840.92 139.5,-837.96 139.5,-837.96 139.5,-832.04 139.5,-832.04 139.5,-829.08 142.46,-826.12 145.42,-826.12 145.42,-826.12 243.33,-826.12 243.33,-826.12 246.29,-826.12 249.25,-829.08 249.25,-832.04 249.25,-832.04 249.25,-837.96 249.25,-837.96 249.25,-840.92 246.29,-843.88 243.33,-843.88"/>
<text text-anchor="start" x="147.5" y="-831.33" font-family="Helvetica,sans-Serif" font-size="9.00">AlertDialogProvider.tsx</text>
</a>
</g>
</g>
<!-- src/app/index.tsx&#45;&gt;src/app/providers/AlertDialogProvider.tsx -->
<g id="edge2" class="edge">
<title>src/app/index.tsx&#45;&gt;src/app/providers/AlertDialogProvider.tsx</title>
<path fill="none" stroke="#000000" stroke-width="2" stroke-opacity="0.200000" d="M85.74,-797.24C97.75,-804.3 115.22,-813.85 131.5,-820 134.38,-821.09 137.36,-822.12 140.4,-823.09"/>
<polygon fill="#000000" fill-opacity="0.200000" stroke="#000000" stroke-width="2" stroke-opacity="0.200000" points="139.78,-825.09 146.13,-824.8 140.98,-821.07 139.78,-825.09"/>
</g>
<!-- src/app/providers/AuthProvider.tsx -->
<g id="node4" class="node">
<title>src/app/providers/AuthProvider.tsx</title>
<g id="a_node4"><a xlink:href="src/app/providers/AuthProvider.tsx" xlink:title="AuthProvider.tsx">
<path fill="#bbfeff" stroke="black" d="M229.83,-873.88C229.83,-873.88 158.92,-873.88 158.92,-873.88 155.96,-873.88 153,-870.92 153,-867.96 153,-867.96 153,-862.04 153,-862.04 153,-859.08 155.96,-856.12 158.92,-856.12 158.92,-856.12 229.83,-856.12 229.83,-856.12 232.79,-856.12 235.75,-859.08 235.75,-862.04 235.75,-862.04 235.75,-867.96 235.75,-867.96 235.75,-870.92 232.79,-873.88 229.83,-873.88"/>
<text text-anchor="start" x="161" y="-861.33" font-family="Helvetica,sans-Serif" font-size="9.00">AuthProvider.tsx</text>
</a>
</g>
</g>
<!-- src/app/index.tsx&#45;&gt;src/app/providers/AuthProvider.tsx -->
<g id="edge3" class="edge">
<title>src/app/index.tsx&#45;&gt;src/app/providers/AuthProvider.tsx</title>
<path fill="none" stroke="#000000" stroke-width="2" stroke-opacity="0.200000" d="M77.07,-797.15C87.01,-810.83 107.65,-836.45 131.5,-850 135.42,-852.23 139.67,-854.13 144.04,-855.75"/>
<polygon fill="#000000" fill-opacity="0.200000" stroke="#000000" stroke-width="2" stroke-opacity="0.200000" points="143.29,-857.71 149.65,-857.59 144.6,-853.72 143.29,-857.71"/>
</g>
<!-- src/app/providers/DarkModeProvider.tsx -->
<g id="node5" class="node">
<title>src/app/providers/DarkModeProvider.tsx</title>
<g id="a_node5"><a xlink:href="src/app/providers/DarkModeProvider.tsx" xlink:title="DarkModeProvider.tsx">
<path fill="#bbfeff" stroke="black" d="M241.83,-813.88C241.83,-813.88 146.92,-813.88 146.92,-813.88 143.96,-813.88 141,-810.92 141,-807.96 141,-807.96 141,-802.04 141,-802.04 141,-799.08 143.96,-796.12 146.92,-796.12 146.92,-796.12 241.83,-796.12 241.83,-796.12 244.79,-796.12 247.75,-799.08 247.75,-802.04 247.75,-802.04 247.75,-807.96 247.75,-807.96 247.75,-810.92 244.79,-813.88 241.83,-813.88"/>
<text text-anchor="start" x="149" y="-801.33" font-family="Helvetica,sans-Serif" font-size="9.00">DarkModeProvider.tsx</text>
</a>
</g>
</g>
<!-- src/app/index.tsx&#45;&gt;src/app/providers/DarkModeProvider.tsx -->
<g id="edge4" class="edge">
<title>src/app/index.tsx&#45;&gt;src/app/providers/DarkModeProvider.tsx</title>
<path fill="none" stroke="#000000" stroke-width="2" stroke-opacity="0.200000" d="M97.06,-791.65C107.36,-793.08 119.65,-794.78 131.95,-796.48"/>
<polygon fill="#000000" fill-opacity="0.200000" stroke="#000000" stroke-width="2" stroke-opacity="0.200000" points="131.65,-798.56 137.88,-797.31 132.22,-794.4 131.65,-798.56"/>
</g>
<!-- src/features/AlertDialog.tsx -->
<g id="node6" class="node">
<title>src/features/AlertDialog.tsx</title>
<g id="a_node6"><a xlink:href="src/features/AlertDialog.tsx" xlink:title="AlertDialog.tsx">
<path fill="#bbfeff" stroke="black" d="M226.08,-569.88C226.08,-569.88 162.67,-569.88 162.67,-569.88 159.71,-569.88 156.75,-566.92 156.75,-563.96 156.75,-563.96 156.75,-558.04 156.75,-558.04 156.75,-555.08 159.71,-552.12 162.67,-552.12 162.67,-552.12 226.08,-552.12 226.08,-552.12 229.04,-552.12 232,-555.08 232,-558.04 232,-558.04 232,-563.96 232,-563.96 232,-566.92 229.04,-569.88 226.08,-569.88"/>
<text text-anchor="start" x="164.75" y="-557.33" font-family="Helvetica,sans-Serif" font-size="9.00">AlertDialog.tsx</text>
</a>
</g>
</g>
<!-- src/app/index.tsx&#45;&gt;src/features/AlertDialog.tsx -->
<g id="edge5" class="edge">
<title>src/app/index.tsx&#45;&gt;src/features/AlertDialog.tsx</title>
<path fill="none" stroke="#000000" stroke-width="2" stroke-opacity="0.200000" d="M75.71,-778.82C94.31,-744.38 160.14,-622.53 184.35,-577.71"/>
<polygon fill="#000000" fill-opacity="0.200000" stroke="#000000" stroke-width="2" stroke-opacity="0.200000" points="186.05,-578.99 187.05,-572.71 182.35,-576.99 186.05,-578.99"/>
</g>
<!-- src/shared/ui -->
<g id="node7" class="node">
<title>src/shared/ui</title>
<g id="a_node7"><a xlink:href="src/shared/ui" xlink:title="ui">
<polygon fill="#ffffcc" stroke="black" points="335.25,-376.88 283.22,-376.88 281.25,-374.9 281.25,-359.12 333.28,-359.12 335.25,-361.1 335.25,-376.88"/>
<polyline fill="none" stroke="black" points="333.28,-374.9 281.25,-374.9"/>
<polyline fill="none" stroke="black" points="333.28,-374.9 333.28,-359.12"/>
<polyline fill="none" stroke="black" points="333.28,-374.9 335.25,-376.88"/>
<text text-anchor="start" x="304.5" y="-364.32" font-family="Helvetica,sans-Serif" font-size="9.00">ui</text>
</a>
</g>
</g>
<!-- src/app/index.tsx&#45;&gt;src/shared/ui -->
<g id="edge6" class="edge">
<title>src/app/index.tsx&#45;&gt;src/shared/ui</title>
<path fill="none" stroke="#000000" stroke-width="2" stroke-opacity="0.200000" d="M85.43,-778.63C122.43,-754.13 219.84,-684.17 265.25,-599 303.61,-527.04 307.67,-426.49 307.61,-385.97"/>
<polygon fill="#000000" fill-opacity="0.200000" stroke="#000000" stroke-width="2" stroke-opacity="0.200000" points="309.71,-386.02 307.55,-380.04 305.51,-386.06 309.71,-386.02"/>
</g>
<!-- src/shared/lib -->
<g id="node8" class="node">
<title>src/shared/lib</title>
<g id="a_node8"><a xlink:href="src/shared/lib" xlink:title="lib">
<polygon fill="#ffffcc" stroke="black" points="402.25,-376.88 350.22,-376.88 348.25,-374.9 348.25,-359.12 400.28,-359.12 402.25,-361.1 402.25,-376.88"/>
<polyline fill="none" stroke="black" points="400.28,-374.9 348.25,-374.9"/>
<polyline fill="none" stroke="black" points="400.28,-374.9 400.28,-359.12"/>
<polyline fill="none" stroke="black" points="400.28,-374.9 402.25,-376.88"/>
<text text-anchor="start" x="370.38" y="-364.32" font-family="Helvetica,sans-Serif" font-size="9.00">lib</text>
</a>
</g>
</g>
<!-- src/app/providers/AlertDialogProvider.tsx&#45;&gt;src/shared/lib -->
<g id="edge7" class="edge">
<title>src/app/providers/AlertDialogProvider.tsx&#45;&gt;src/shared/lib</title>
<path fill="none" stroke="#000000" stroke-width="2" stroke-opacity="0.200000" d="M249.67,-826.9C255.11,-825.05 260.41,-822.79 265.25,-820 305.34,-796.93 316.36,-785.22 335.25,-743 364.36,-677.93 372.17,-452.11 373.85,-386.19"/>
<polygon fill="#000000" fill-opacity="0.200000" stroke="#000000" stroke-width="2" stroke-opacity="0.200000" points="375.94,-386.43 373.99,-380.38 371.75,-386.33 375.94,-386.43"/>
</g>
<!-- src/app/providers/AuthProvider.tsx&#45;&gt;src/shared/lib -->
<g id="edge9" class="edge">
<title>src/app/providers/AuthProvider.tsx&#45;&gt;src/shared/lib</title>
<path fill="none" stroke="#000000" stroke-width="2" stroke-opacity="0.200000" d="M235.9,-860.28C245.89,-858.06 256.28,-854.8 265.25,-850 303.5,-829.54 316.5,-821.11 335.25,-782 369.59,-710.34 373.71,-455.77 374.19,-385.87"/>
<polygon fill="#000000" fill-opacity="0.200000" stroke="#000000" stroke-width="2" stroke-opacity="0.200000" points="376.29,-386.31 374.22,-380.3 372.09,-386.29 376.29,-386.31"/>
</g>
<!-- src/shared/api -->
<g id="node9" class="node">
<title>src/shared/api</title>
<g id="a_node9"><a xlink:href="src/shared/api" xlink:title="api">
<polygon fill="#ffffcc" stroke="black" points="469.25,-376.88 417.22,-376.88 415.25,-374.9 415.25,-359.12 467.28,-359.12 469.25,-361.1 469.25,-376.88"/>
<polyline fill="none" stroke="black" points="467.28,-374.9 415.25,-374.9"/>
<polyline fill="none" stroke="black" points="467.28,-374.9 467.28,-359.12"/>
<polyline fill="none" stroke="black" points="467.28,-374.9 469.25,-376.88"/>
<text text-anchor="start" x="435.88" y="-364.32" font-family="Helvetica,sans-Serif" font-size="9.00">api</text>
</a>
</g>
</g>
<!-- src/app/providers/AuthProvider.tsx&#45;&gt;src/shared/api -->
<g id="edge8" class="edge">
<title>src/app/providers/AuthProvider.tsx&#45;&gt;src/shared/api</title>
<path fill="none" stroke="#000000" stroke-width="2" stroke-opacity="0.200000" d="M236.08,-857.91C245.76,-855.77 255.96,-853.14 265.25,-850 336.91,-825.77 370.03,-817.44 402.25,-749 433.16,-683.34 439.71,-452.63 440.97,-386.09"/>
<polygon fill="#000000" fill-opacity="0.200000" stroke="#000000" stroke-width="2" stroke-opacity="0.200000" points="443.07,-386.25 441.07,-380.21 438.87,-386.17 443.07,-386.25"/>
</g>
<!-- src/app/providers/DarkModeProvider.tsx&#45;&gt;src/shared/lib -->
<g id="edge10" class="edge">
<title>src/app/providers/DarkModeProvider.tsx&#45;&gt;src/shared/lib</title>
<path fill="none" stroke="#000000" stroke-width="2" stroke-opacity="0.200000" d="M248.2,-799.76C254.22,-797.85 260.05,-795.33 265.25,-792 310.63,-762.94 315.89,-743.29 335.25,-693 357.2,-635.98 369.79,-445.45 373.26,-385.93"/>
<polygon fill="#000000" fill-opacity="0.200000" stroke="#000000" stroke-width="2" stroke-opacity="0.200000" points="375.34,-386.38 373.58,-380.27 371.14,-386.14 375.34,-386.38"/>
</g>
<!-- src/features/AlertDialog.tsx&#45;&gt;src/shared/ui -->
<g id="edge12" class="edge">
<title>src/features/AlertDialog.tsx&#45;&gt;src/shared/ui</title>
<path fill="none" stroke="#000000" stroke-width="2" stroke-opacity="0.200000" d="M232.46,-561.07C244.45,-559.19 256.81,-554.92 265.25,-546 273.13,-537.66 270.87,-506.22 273.25,-495 281.6,-455.57 294.6,-410.12 301.87,-385.71"/>
<polygon fill="#000000" fill-opacity="0.200000" stroke="#000000" stroke-width="2" stroke-opacity="0.200000" points="303.85,-386.41 303.57,-380.06 299.83,-385.2 303.85,-386.41"/>
</g>
<!-- src/features/AlertDialog.tsx&#45;&gt;src/shared/lib -->
<g id="edge11" class="edge">
<title>src/features/AlertDialog.tsx&#45;&gt;src/shared/lib</title>
<path fill="none" stroke="#000000" stroke-width="2" stroke-opacity="0.200000" d="M232.47,-558.68C243.78,-556.56 255.73,-552.74 265.25,-546 323.33,-504.85 356.46,-422.04 368.73,-385.74"/>
<polygon fill="#000000" fill-opacity="0.200000" stroke="#000000" stroke-width="2" stroke-opacity="0.200000" points="370.72,-386.41 370.58,-380.06 366.72,-385.11 370.72,-386.41"/>
</g>
<!-- src/shared/ui&#45;&gt;src/shared/lib -->
<g id="edge54" class="edge">
<title>src/shared/ui&#45;&gt;src/shared/lib</title>
<path fill="none" stroke="#000000" stroke-width="2" stroke-opacity="0.200000" d="M335.69,-368C336.83,-368 337.99,-368 339.15,-368"/>
<polygon fill="#000000" fill-opacity="0.200000" stroke="#000000" stroke-width="2" stroke-opacity="0.200000" points="339.02,-370.1 345.02,-368 339.02,-365.9 339.02,-370.1"/>
</g>
<!-- src/shared/lib&#45;&gt;src/shared/api -->
<g id="edge53" class="edge">
<title>src/shared/lib&#45;&gt;src/shared/api</title>
<path fill="none" stroke="#000000" stroke-width="2" stroke-opacity="0.200000" d="M402.69,-363.57C403.83,-363.54 404.99,-363.52 406.15,-363.51"/>
<polygon fill="#000000" fill-opacity="0.200000" stroke="#000000" stroke-width="2" stroke-opacity="0.200000" points="406,-365.61 412.02,-363.55 406.03,-361.41 406,-365.61"/>
</g>
<!-- src/shared/api&#45;&gt;src/shared/lib -->
<g id="edge52" class="edge">
<title>src/shared/api&#45;&gt;src/shared/lib</title>
<path fill="none" stroke="#000000" stroke-width="2" stroke-opacity="0.200000" d="M415.05,-372.42C413.9,-372.45 412.74,-372.47 411.58,-372.48"/>
<polygon fill="#000000" fill-opacity="0.200000" stroke="#000000" stroke-width="2" stroke-opacity="0.200000" points="411.73,-370.39 405.72,-372.45 411.7,-374.59 411.73,-370.39"/>
</g>
<!-- src/features/ColorWithText.tsx -->
<g id="node10" class="node">
<title>src/features/ColorWithText.tsx</title>
<g id="a_node10"><a xlink:href="src/features/ColorWithText.tsx" xlink:title="ColorWithText.tsx">
<path fill="#bbfeff" stroke="black" d="M231.71,-419.88C231.71,-419.88 157.04,-419.88 157.04,-419.88 154.08,-419.88 151.12,-416.92 151.12,-413.96 151.12,-413.96 151.12,-408.04 151.12,-408.04 151.12,-405.08 154.08,-402.12 157.04,-402.12 157.04,-402.12 231.71,-402.12 231.71,-402.12 234.67,-402.12 237.62,-405.08 237.62,-408.04 237.62,-408.04 237.62,-413.96 237.62,-413.96 237.62,-416.92 234.67,-419.88 231.71,-419.88"/>
<text text-anchor="start" x="159.12" y="-407.32" font-family="Helvetica,sans-Serif" font-size="9.00">ColorWithText.tsx</text>
</a>
</g>
</g>
<!-- src/features/ColorWithText.tsx&#45;&gt;src/shared/ui -->
<g id="edge13" class="edge">
<title>src/features/ColorWithText.tsx&#45;&gt;src/shared/ui</title>
<path fill="none" stroke="#000000" stroke-width="2" stroke-opacity="0.200000" d="M237.92,-404.54C247.13,-402.41 256.68,-399.62 265.25,-396 273.43,-392.54 281.72,-387.44 288.74,-382.53"/>
<polygon fill="#000000" fill-opacity="0.200000" stroke="#000000" stroke-width="2" stroke-opacity="0.200000" points="289.76,-384.38 293.36,-379.15 287.28,-380.99 289.76,-384.38"/>
</g>
<!-- src/features/ErrorMessages.tsx -->
<g id="node11" class="node">
<title>src/features/ErrorMessages.tsx</title>
<g id="a_node11"><a xlink:href="src/features/ErrorMessages.tsx" xlink:title="ErrorMessages.tsx">
<path fill="#bbfeff" stroke="black" d="M234.33,-539.88C234.33,-539.88 154.42,-539.88 154.42,-539.88 151.46,-539.88 148.5,-536.92 148.5,-533.96 148.5,-533.96 148.5,-528.04 148.5,-528.04 148.5,-525.08 151.46,-522.12 154.42,-522.12 154.42,-522.12 234.33,-522.12 234.33,-522.12 237.29,-522.12 240.25,-525.08 240.25,-528.04 240.25,-528.04 240.25,-533.96 240.25,-533.96 240.25,-536.92 237.29,-539.88 234.33,-539.88"/>
<text text-anchor="start" x="156.5" y="-527.33" font-family="Helvetica,sans-Serif" font-size="9.00">ErrorMessages.tsx</text>
</a>
</g>
</g>
<!-- src/features/ErrorMessages.tsx&#45;&gt;src/shared/ui -->
<g id="edge14" class="edge">
<title>src/features/ErrorMessages.tsx&#45;&gt;src/shared/ui</title>
<path fill="none" stroke="#000000" stroke-width="2" stroke-opacity="0.200000" d="M240.59,-528.65C249.65,-526.28 258.46,-522.36 265.25,-516 270.1,-511.45 292.82,-424.44 302.67,-386"/>
<polygon fill="#000000" fill-opacity="0.200000" stroke="#000000" stroke-width="2" stroke-opacity="0.200000" points="304.68,-386.62 304.13,-380.28 300.61,-385.58 304.68,-386.62"/>
</g>
<!-- src/features/Footer.tsx -->
<g id="node12" class="node">
<title>src/features/Footer.tsx</title>
<g id="a_node12"><a xlink:href="src/features/Footer.tsx" xlink:title="Footer.tsx">
<path fill="#bbfeff" stroke="black" d="M216.33,-509.88C216.33,-509.88 172.42,-509.88 172.42,-509.88 169.46,-509.88 166.5,-506.92 166.5,-503.96 166.5,-503.96 166.5,-498.04 166.5,-498.04 166.5,-495.08 169.46,-492.12 172.42,-492.12 172.42,-492.12 216.33,-492.12 216.33,-492.12 219.29,-492.12 222.25,-495.08 222.25,-498.04 222.25,-498.04 222.25,-503.96 222.25,-503.96 222.25,-506.92 219.29,-509.88 216.33,-509.88"/>
<text text-anchor="start" x="174.5" y="-497.32" font-family="Helvetica,sans-Serif" font-size="9.00">Footer.tsx</text>
</a>
</g>
</g>
<!-- src/features/Header.tsx -->
<g id="node13" class="node">
<title>src/features/Header.tsx</title>
<g id="a_node13"><a xlink:href="src/features/Header.tsx" xlink:title="Header.tsx">
<path fill="#bbfeff" stroke="black" d="M218.58,-479.88C218.58,-479.88 170.17,-479.88 170.17,-479.88 167.21,-479.88 164.25,-476.92 164.25,-473.96 164.25,-473.96 164.25,-468.04 164.25,-468.04 164.25,-465.08 167.21,-462.12 170.17,-462.12 170.17,-462.12 218.58,-462.12 218.58,-462.12 221.54,-462.12 224.5,-465.08 224.5,-468.04 224.5,-468.04 224.5,-473.96 224.5,-473.96 224.5,-476.92 221.54,-479.88 218.58,-479.88"/>
<text text-anchor="start" x="172.25" y="-467.32" font-family="Helvetica,sans-Serif" font-size="9.00">Header.tsx</text>
</a>
</g>
</g>
<!-- src/features/Menu.tsx -->
<g id="node14" class="node">
<title>src/features/Menu.tsx</title>
<g id="a_node14"><a xlink:href="src/features/Menu.tsx" xlink:title="Menu.tsx">
<path fill="#bbfeff" stroke="black" d="M215.46,-449.88C215.46,-449.88 173.29,-449.88 173.29,-449.88 170.33,-449.88 167.38,-446.92 167.38,-443.96 167.38,-443.96 167.38,-438.04 167.38,-438.04 167.38,-435.08 170.33,-432.12 173.29,-432.12 173.29,-432.12 215.46,-432.12 215.46,-432.12 218.42,-432.12 221.38,-435.08 221.38,-438.04 221.38,-438.04 221.38,-443.96 221.38,-443.96 221.38,-446.92 218.42,-449.88 215.46,-449.88"/>
<text text-anchor="start" x="176" y="-437.32" font-family="Helvetica,sans-Serif" font-size="9.00">Menu.tsx</text>
</a>
</g>
</g>
<!-- src/features/Menu.tsx&#45;&gt;src/shared/lib -->
<g id="edge15" class="edge">
<title>src/features/Menu.tsx&#45;&gt;src/shared/lib</title>
<path fill="none" stroke="#000000" stroke-width="2" stroke-opacity="0.200000" d="M221.74,-437.12C235.04,-434.72 251.26,-431.11 265.25,-426 297.03,-414.39 331.06,-395.05 352.48,-381.92"/>
<polygon fill="#000000" fill-opacity="0.200000" stroke="#000000" stroke-width="2" stroke-opacity="0.200000" points="353.48,-383.77 357.47,-378.82 351.26,-380.21 353.48,-383.77"/>
</g>
<!-- src/features/RangeWithNumber.tsx -->
<g id="node15" class="node">
<title>src/features/RangeWithNumber.tsx</title>
<g id="a_node15"><a xlink:href="src/features/RangeWithNumber.tsx" xlink:title="RangeWithNumber.tsx">
<path fill="#bbfeff" stroke="black" d="M242.58,-389.88C242.58,-389.88 146.17,-389.88 146.17,-389.88 143.21,-389.88 140.25,-386.92 140.25,-383.96 140.25,-383.96 140.25,-378.04 140.25,-378.04 140.25,-375.08 143.21,-372.12 146.17,-372.12 146.17,-372.12 242.58,-372.12 242.58,-372.12 245.54,-372.12 248.5,-375.08 248.5,-378.04 248.5,-378.04 248.5,-383.96 248.5,-383.96 248.5,-386.92 245.54,-389.88 242.58,-389.88"/>
<text text-anchor="start" x="148.25" y="-377.32" font-family="Helvetica,sans-Serif" font-size="9.00">RangeWithNumber.tsx</text>
</a>
</g>
</g>
<!-- src/features/RangeWithNumber.tsx&#45;&gt;src/shared/ui -->
<g id="edge16" class="edge">
<title>src/features/RangeWithNumber.tsx&#45;&gt;src/shared/ui</title>
<path fill="none" stroke="#000000" stroke-width="2" stroke-opacity="0.200000" d="M248.69,-374.8C256.7,-373.87 264.78,-372.93 272.28,-372.06"/>
<polygon fill="#000000" fill-opacity="0.200000" stroke="#000000" stroke-width="2" stroke-opacity="0.200000" points="272.04,-374.21 277.76,-371.43 271.55,-370.03 272.04,-374.21"/>
</g>
<!-- src/pages/(auth)/login.tsx -->
<g id="node16" class="node">
<title>src/pages/(auth)/login.tsx</title>
<g id="a_node16"><a xlink:href="src/pages/(auth)/login.tsx" xlink:title="login.tsx">
<path fill="#bbfeff" stroke="black" d="M90.83,-209.88C90.83,-209.88 48.67,-209.88 48.67,-209.88 45.71,-209.88 42.75,-206.92 42.75,-203.96 42.75,-203.96 42.75,-198.04 42.75,-198.04 42.75,-195.08 45.71,-192.12 48.67,-192.12 48.67,-192.12 90.83,-192.12 90.83,-192.12 93.79,-192.12 96.75,-195.08 96.75,-198.04 96.75,-198.04 96.75,-203.96 96.75,-203.96 96.75,-206.92 93.79,-209.88 90.83,-209.88"/>
<text text-anchor="start" x="52.88" y="-197.32" font-family="Helvetica,sans-Serif" font-size="9.00">login.tsx</text>
</a>
</g>
</g>
<!-- src/pages/(auth)/login.tsx&#45;&gt;src/shared/ui -->
<g id="edge18" class="edge">
<title>src/pages/(auth)/login.tsx&#45;&gt;src/shared/ui</title>
<path fill="none" stroke="#000000" stroke-width="2" stroke-opacity="0.200000" d="M78.68,-210.35C89.33,-222.18 109.47,-242.07 131.5,-251 159.14,-262.21 242.44,-242.78 265.25,-262 276.13,-271.17 268.52,-279.58 273.25,-293 280.48,-313.51 291.13,-336.13 298.57,-351.11"/>
<polygon fill="#000000" fill-opacity="0.200000" stroke="#000000" stroke-width="2" stroke-opacity="0.200000" points="296.6,-351.86 301.18,-356.27 300.35,-349.97 296.6,-351.86"/>
</g>
<!-- src/pages/(auth)/login.tsx&#45;&gt;src/shared/lib -->
<g id="edge17" class="edge">
<title>src/pages/(auth)/login.tsx&#45;&gt;src/shared/lib</title>
<path fill="none" stroke="#000000" stroke-width="2" stroke-opacity="0.200000" d="M86.68,-210.35C99.23,-218.71 115.85,-232.21 123.5,-249 131.57,-266.7 117.59,-585.41 131.5,-599 142.13,-609.39 251.95,-605.63 265.25,-599 347.12,-558.15 367.83,-433.1 372.78,-386.1"/>
<polygon fill="#000000" fill-opacity="0.200000" stroke="#000000" stroke-width="2" stroke-opacity="0.200000" points="374.85,-386.5 373.33,-380.33 370.67,-386.11 374.85,-386.5"/>
</g>
<!-- src/widgets/LoginButton.tsx -->
<g id="node17" class="node">
<title>src/widgets/LoginButton.tsx</title>
<g id="a_node17"><a xlink:href="src/widgets/LoginButton.tsx" xlink:title="LoginButton.tsx">
<path fill="#bbfeff" stroke="black" d="M227.96,-41.88C227.96,-41.88 160.79,-41.88 160.79,-41.88 157.83,-41.88 154.88,-38.92 154.88,-35.96 154.88,-35.96 154.88,-30.04 154.88,-30.04 154.88,-27.08 157.83,-24.12 160.79,-24.12 160.79,-24.12 227.96,-24.12 227.96,-24.12 230.92,-24.12 233.88,-27.08 233.88,-30.04 233.88,-30.04 233.88,-35.96 233.88,-35.96 233.88,-38.92 230.92,-41.88 227.96,-41.88"/>
<text text-anchor="start" x="162.88" y="-29.32" font-family="Helvetica,sans-Serif" font-size="9.00">LoginButton.tsx</text>
</a>
</g>
</g>
<!-- src/pages/(auth)/login.tsx&#45;&gt;src/widgets/LoginButton.tsx -->
<g id="edge19" class="edge">
<title>src/pages/(auth)/login.tsx&#45;&gt;src/widgets/LoginButton.tsx</title>
<path fill="none" stroke="#000000" stroke-width="2" stroke-opacity="0.200000" d="M71.54,-191.77C74.34,-165.1 86.19,-87.36 131.5,-48 135.77,-44.29 140.81,-41.46 146.13,-39.31"/>
<polygon fill="#000000" fill-opacity="0.200000" stroke="#000000" stroke-width="2" stroke-opacity="0.200000" points="146.77,-41.32 151.8,-37.43 145.44,-37.33 146.77,-41.32"/>
</g>
<!-- src/widgets/LoginButton.tsx&#45;&gt;src/shared/ui -->
<g id="edge60" class="edge">
<title>src/widgets/LoginButton.tsx&#45;&gt;src/shared/ui</title>
<path fill="none" stroke="#000000" stroke-width="2" stroke-opacity="0.200000" d="M234.04,-33.05C245.58,-35.04 257.26,-39.33 265.25,-48 306.18,-92.38 307.96,-288.81 307.5,-349.84"/>
<polygon fill="#000000" fill-opacity="0.200000" stroke="#000000" stroke-width="2" stroke-opacity="0.200000" points="305.4,-349.68 307.44,-355.7 309.6,-349.72 305.4,-349.68"/>
</g>
<!-- src/widgets/LoginButton.tsx&#45;&gt;src/shared/lib -->
<g id="edge59" class="edge">
<title>src/widgets/LoginButton.tsx&#45;&gt;src/shared/lib</title>
<path fill="none" stroke="#000000" stroke-width="2" stroke-opacity="0.200000" d="M234.03,-38.24C244.45,-40.46 255.53,-43.6 265.25,-48 300.56,-63.99 315.38,-66.72 335.25,-100 360.67,-142.57 370.67,-296.9 373.41,-349.95"/>
<polygon fill="#000000" fill-opacity="0.200000" stroke="#000000" stroke-width="2" stroke-opacity="0.200000" points="371.31,-349.97 373.7,-355.86 375.51,-349.76 371.31,-349.97"/>
</g>
<!-- src/pages/(root)/_layout.tsx -->
<g id="node18" class="node">
<title>src/pages/(root)/_layout.tsx</title>
<g id="a_node18"><a xlink:href="src/pages/(root)/_layout.tsx" xlink:title="_layout.tsx">
<path fill="#bbfeff" stroke="black" d="M93.58,-419.88C93.58,-419.88 45.92,-419.88 45.92,-419.88 42.96,-419.88 40,-416.92 40,-413.96 40,-413.96 40,-408.04 40,-408.04 40,-405.08 42.96,-402.12 45.92,-402.12 45.92,-402.12 93.58,-402.12 93.58,-402.12 96.54,-402.12 99.5,-405.08 99.5,-408.04 99.5,-408.04 99.5,-413.96 99.5,-413.96 99.5,-416.92 96.54,-419.88 93.58,-419.88"/>
<text text-anchor="start" x="48" y="-407.32" font-family="Helvetica,sans-Serif" font-size="9.00">_layout.tsx</text>
</a>
</g>
</g>
<!-- src/pages/(root)/_layout.tsx&#45;&gt;src/features/Footer.tsx -->
<g id="edge20" class="edge">
<title>src/pages/(root)/_layout.tsx&#45;&gt;src/features/Footer.tsx</title>
<path fill="none" stroke="#000000" stroke-width="2" stroke-opacity="0.200000" d="M99.8,-413.15C108.61,-415.25 117.52,-419.09 123.5,-426 141.1,-446.35 113.5,-466 131.5,-486 138.12,-493.36 147.69,-497.41 157.32,-499.56"/>
<polygon fill="#000000" fill-opacity="0.200000" stroke="#000000" stroke-width="2" stroke-opacity="0.200000" points="156.86,-501.61 163.13,-500.53 157.56,-497.47 156.86,-501.61"/>
</g>
<!-- src/pages/(root)/_layout.tsx&#45;&gt;src/features/Header.tsx -->
<g id="edge21" class="edge">
<title>src/pages/(root)/_layout.tsx&#45;&gt;src/features/Header.tsx</title>
<path fill="none" stroke="#000000" stroke-width="2" stroke-opacity="0.200000" d="M99.85,-413.75C108.44,-415.9 117.22,-419.62 123.5,-426 133.18,-435.84 121.63,-446.35 131.5,-456 137.9,-462.26 146.45,-466.06 155.14,-468.33"/>
<polygon fill="#000000" fill-opacity="0.200000" stroke="#000000" stroke-width="2" stroke-opacity="0.200000" points="154.54,-470.35 160.84,-469.51 155.39,-466.24 154.54,-470.35"/>
</g>
<!-- src/pages/(root)/_layout.tsx&#45;&gt;src/features/Menu.tsx -->
<g id="edge22" class="edge">
<title>src/pages/(root)/_layout.tsx&#45;&gt;src/features/Menu.tsx</title>
<path fill="none" stroke="#000000" stroke-width="2" stroke-opacity="0.200000" d="M99.79,-418.2C109.83,-420.68 121.16,-423.47 131.5,-426 140.28,-428.15 149.76,-430.45 158.6,-432.6"/>
<polygon fill="#000000" fill-opacity="0.200000" stroke="#000000" stroke-width="2" stroke-opacity="0.200000" points="157.91,-434.59 164.23,-433.96 158.9,-430.51 157.91,-434.59"/>
</g>
<!-- src/widgets/AuthGuard.tsx -->
<g id="node19" class="node">
<title>src/widgets/AuthGuard.tsx</title>
<g id="a_node19"><a xlink:href="src/widgets/AuthGuard.tsx" xlink:title="AuthGuard.tsx">
<path fill="#bbfeff" stroke="black" d="M225.33,-221.88C225.33,-221.88 163.42,-221.88 163.42,-221.88 160.46,-221.88 157.5,-218.92 157.5,-215.96 157.5,-215.96 157.5,-210.04 157.5,-210.04 157.5,-207.08 160.46,-204.12 163.42,-204.12 163.42,-204.12 225.33,-204.12 225.33,-204.12 228.29,-204.12 231.25,-207.08 231.25,-210.04 231.25,-210.04 231.25,-215.96 231.25,-215.96 231.25,-218.92 228.29,-221.88 225.33,-221.88"/>
<text text-anchor="start" x="165.5" y="-209.32" font-family="Helvetica,sans-Serif" font-size="9.00">AuthGuard.tsx</text>
</a>
</g>
</g>
<!-- src/pages/(root)/_layout.tsx&#45;&gt;src/widgets/AuthGuard.tsx -->
<g id="edge23" class="edge">
<title>src/pages/(root)/_layout.tsx&#45;&gt;src/widgets/AuthGuard.tsx</title>
<path fill="none" stroke="#000000" stroke-width="2" stroke-opacity="0.200000" d="M99.97,-408.99C108.79,-406.9 117.66,-403.03 123.5,-396 135.9,-381.06 125.17,-327.35 131.5,-309 142.23,-277.89 165.05,-246.77 179.78,-228.73"/>
<polygon fill="#000000" fill-opacity="0.200000" stroke="#000000" stroke-width="2" stroke-opacity="0.200000" points="181,-230.54 183.23,-224.59 177.78,-227.85 181,-230.54"/>
</g>
<!-- src/widgets/Profile.tsx -->
<g id="node20" class="node">
<title>src/widgets/Profile.tsx</title>
<g id="a_node20"><a xlink:href="src/widgets/Profile.tsx" xlink:title="Profile.tsx">
<path fill="#bbfeff" stroke="black" d="M216.33,-191.88C216.33,-191.88 172.42,-191.88 172.42,-191.88 169.46,-191.88 166.5,-188.92 166.5,-185.96 166.5,-185.96 166.5,-180.04 166.5,-180.04 166.5,-177.08 169.46,-174.12 172.42,-174.12 172.42,-174.12 216.33,-174.12 216.33,-174.12 219.29,-174.12 222.25,-177.08 222.25,-180.04 222.25,-180.04 222.25,-185.96 222.25,-185.96 222.25,-188.92 219.29,-191.88 216.33,-191.88"/>
<text text-anchor="start" x="174.5" y="-179.32" font-family="Helvetica,sans-Serif" font-size="9.00">Profile.tsx</text>
</a>
</g>
</g>
<!-- src/pages/(root)/_layout.tsx&#45;&gt;src/widgets/Profile.tsx -->
<g id="edge24" class="edge">
<title>src/pages/(root)/_layout.tsx&#45;&gt;src/widgets/Profile.tsx</title>
<path fill="none" stroke="#000000" stroke-width="2" stroke-opacity="0.200000" d="M99.91,-409.23C108.83,-407.17 117.79,-403.26 123.5,-396 137.12,-378.7 117.54,-215.03 131.5,-198 137.83,-190.28 147.4,-186.14 157.13,-184.01"/>
<polygon fill="#000000" fill-opacity="0.200000" stroke="#000000" stroke-width="2" stroke-opacity="0.200000" points="157.45,-186.09 163.04,-183.06 156.78,-181.94 157.45,-186.09"/>
</g>
<!-- src/widgets/AuthGuard.tsx&#45;&gt;src/shared/lib -->
<g id="edge55" class="edge">
<title>src/widgets/AuthGuard.tsx&#45;&gt;src/shared/lib</title>
<path fill="none" stroke="#000000" stroke-width="2" stroke-opacity="0.200000" d="M215.01,-222.28C229.57,-229.62 249.53,-240.65 265.25,-253 304.28,-283.67 342.45,-328.25 361.58,-351.89"/>
<polygon fill="#000000" fill-opacity="0.200000" stroke="#000000" stroke-width="2" stroke-opacity="0.200000" points="359.81,-353.04 365.2,-356.42 363.09,-350.42 359.81,-353.04"/>
</g>
<!-- src/widgets/Profile.tsx&#45;&gt;src/shared/ui -->
<g id="edge62" class="edge">
<title>src/widgets/Profile.tsx&#45;&gt;src/shared/ui</title>
<path fill="none" stroke="#000000" stroke-width="2" stroke-opacity="0.200000" d="M222.45,-182.26C236.92,-183.31 254.03,-187.12 265.25,-198 287.08,-219.17 300.44,-311.06 305.24,-350.22"/>
<polygon fill="#000000" fill-opacity="0.200000" stroke="#000000" stroke-width="2" stroke-opacity="0.200000" points="303.12,-350.25 305.92,-355.96 307.3,-349.75 303.12,-350.25"/>
</g>
<!-- src/widgets/Profile.tsx&#45;&gt;src/shared/lib -->
<g id="edge61" class="edge">
<title>src/widgets/Profile.tsx&#45;&gt;src/shared/lib</title>
<path fill="none" stroke="#000000" stroke-width="2" stroke-opacity="0.200000" d="M222.62,-185.66C235.99,-187.74 252.02,-191.44 265.25,-198 301.97,-216.19 312.06,-224.21 335.25,-258 355.11,-286.94 365.95,-327.09 370.89,-350.02"/>
<polygon fill="#000000" fill-opacity="0.200000" stroke="#000000" stroke-width="2" stroke-opacity="0.200000" points="368.8,-350.28 372.05,-355.75 372.91,-349.45 368.8,-350.28"/>
</g>
<!-- src/pages/(root)/clipboard.tsx -->
<g id="node21" class="node">
<title>src/pages/(root)/clipboard.tsx</title>
<g id="a_node21"><a xlink:href="src/pages/(root)/clipboard.tsx" xlink:title="clipboard.tsx">
<path fill="#bbfeff" stroke="black" d="M97.71,-449.88C97.71,-449.88 41.79,-449.88 41.79,-449.88 38.83,-449.88 35.88,-446.92 35.88,-443.96 35.88,-443.96 35.88,-438.04 35.88,-438.04 35.88,-435.08 38.83,-432.12 41.79,-432.12 41.79,-432.12 97.71,-432.12 97.71,-432.12 100.67,-432.12 103.62,-435.08 103.62,-438.04 103.62,-438.04 103.62,-443.96 103.62,-443.96 103.62,-446.92 100.67,-449.88 97.71,-449.88"/>
<text text-anchor="start" x="43.88" y="-437.32" font-family="Helvetica,sans-Serif" font-size="9.00">clipboard.tsx</text>
</a>
</g>
</g>
<!-- src/pages/(root)/clipboard.tsx&#45;&gt;src/shared/ui -->
<g id="edge26" class="edge">
<title>src/pages/(root)/clipboard.tsx&#45;&gt;src/shared/ui</title>
<path fill="none" stroke="#000000" stroke-width="2" stroke-opacity="0.200000" d="M103.88,-438.01C111.37,-435.75 118.56,-432.04 123.5,-426 138.04,-408.23 114.65,-338.59 131.5,-323 153.32,-302.81 237.99,-311.15 265.25,-323 278.53,-328.77 289.51,-341.03 296.92,-351.3"/>
<polygon fill="#000000" fill-opacity="0.200000" stroke="#000000" stroke-width="2" stroke-opacity="0.200000" points="295.07,-352.32 300.16,-356.12 298.55,-349.97 295.07,-352.32"/>
</g>
<!-- src/pages/(root)/clipboard.tsx&#45;&gt;src/shared/lib -->
<g id="edge25" class="edge">
<title>src/pages/(root)/clipboard.tsx&#45;&gt;src/shared/lib</title>
<path fill="none" stroke="#000000" stroke-width="2" stroke-opacity="0.200000" d="M104,-443.9C111.48,-446.15 118.64,-449.89 123.5,-456 134.71,-470.11 118.45,-605.57 131.5,-618 164.3,-649.22 300.85,-647.45 335.25,-618 370.36,-587.94 374.1,-438.37 374.32,-386.08"/>
<polygon fill="#000000" fill-opacity="0.200000" stroke="#000000" stroke-width="2" stroke-opacity="0.200000" points="376.42,-386.27 374.32,-380.27 372.22,-386.27 376.42,-386.27"/>
</g>
<!-- src/pages/(root)/datetime.tsx -->
<g id="node22" class="node">
<title>src/pages/(root)/datetime.tsx</title>
<g id="a_node22"><a xlink:href="src/pages/(root)/datetime.tsx" xlink:title="datetime.tsx">
<path fill="#bbfeff" stroke="black" d="M96.21,-539.88C96.21,-539.88 43.29,-539.88 43.29,-539.88 40.33,-539.88 37.38,-536.92 37.38,-533.96 37.38,-533.96 37.38,-528.04 37.38,-528.04 37.38,-525.08 40.33,-522.12 43.29,-522.12 43.29,-522.12 96.21,-522.12 96.21,-522.12 99.17,-522.12 102.12,-525.08 102.12,-528.04 102.12,-528.04 102.12,-533.96 102.12,-533.96 102.12,-536.92 99.17,-539.88 96.21,-539.88"/>
<text text-anchor="start" x="45.38" y="-527.33" font-family="Helvetica,sans-Serif" font-size="9.00">datetime.tsx</text>
</a>
</g>
</g>
<!-- src/pages/(root)/datetime.tsx&#45;&gt;src/shared/ui -->
<g id="edge30" class="edge">
<title>src/pages/(root)/datetime.tsx&#45;&gt;src/shared/ui</title>
<path fill="none" stroke="#000000" stroke-width="2" stroke-opacity="0.200000" d="M102.62,-528.49C110.59,-526.29 118.34,-522.48 123.5,-516 134.24,-502.51 119,-372.88 131.5,-361 151.01,-342.47 226.96,-352.77 272.39,-360.99"/>
<polygon fill="#000000" fill-opacity="0.200000" stroke="#000000" stroke-width="2" stroke-opacity="0.200000" points="271.78,-363.01 278.07,-362.04 272.55,-358.88 271.78,-363.01"/>
</g>
<!-- src/pages/(root)/datetime.tsx&#45;&gt;src/shared/lib -->
<g id="edge29" class="edge">
<title>src/pages/(root)/datetime.tsx&#45;&gt;src/shared/lib</title>
<path fill="none" stroke="#000000" stroke-width="2" stroke-opacity="0.200000" d="M102.46,-532.3C110.44,-534.2 118.22,-537.72 123.5,-544 140.26,-563.95 112.45,-643.21 131.5,-661 164.59,-691.91 301.6,-689.3 335.25,-659 375.8,-622.48 375.8,-443.49 374.72,-385.89"/>
<polygon fill="#000000" fill-opacity="0.200000" stroke="#000000" stroke-width="2" stroke-opacity="0.200000" points="376.82,-386.14 374.59,-380.19 372.62,-386.23 376.82,-386.14"/>
</g>
<!-- src/pages/(root)/datetime.tsx&#45;&gt;src/shared/api -->
<g id="edge28" class="edge">
<title>src/pages/(root)/datetime.tsx&#45;&gt;src/shared/api</title>
<path fill="none" stroke="#000000" stroke-width="2" stroke-opacity="0.200000" d="M102.49,-532.28C110.47,-534.18 118.24,-537.7 123.5,-544 142.18,-566.4 110.26,-655.02 131.5,-675 197.77,-737.35 252.73,-693.33 335.25,-655 367.78,-639.89 382.91,-640.21 402.25,-610 426.14,-572.7 436.96,-436.06 440.18,-386.29"/>
<polygon fill="#000000" fill-opacity="0.200000" stroke="#000000" stroke-width="2" stroke-opacity="0.200000" points="442.27,-386.44 440.55,-380.32 438.08,-386.18 442.27,-386.44"/>
</g>
<!-- src/pages/(root)/datetime.tsx&#45;&gt;src/features/ErrorMessages.tsx -->
<g id="edge27" class="edge">
<title>src/pages/(root)/datetime.tsx&#45;&gt;src/features/ErrorMessages.tsx</title>
<path fill="none" stroke="#000000" stroke-width="2" stroke-opacity="0.200000" d="M102.33,-531C113.63,-531 126.71,-531 139.37,-531"/>
<polygon fill="#000000" fill-opacity="0.200000" stroke="#000000" stroke-width="2" stroke-opacity="0.200000" points="139.01,-533.1 145.01,-531 139.01,-528.9 139.01,-533.1"/>
</g>
<!-- src/pages/(root)/dnd.tsx -->
<g id="node23" class="node">
<title>src/pages/(root)/dnd.tsx</title>
<g id="a_node23"><a xlink:href="src/pages/(root)/dnd.tsx" xlink:title="dnd.tsx">
<path fill="#bbfeff" stroke="black" d="M90.83,-359.88C90.83,-359.88 48.67,-359.88 48.67,-359.88 45.71,-359.88 42.75,-356.92 42.75,-353.96 42.75,-353.96 42.75,-348.04 42.75,-348.04 42.75,-345.08 45.71,-342.12 48.67,-342.12 48.67,-342.12 90.83,-342.12 90.83,-342.12 93.79,-342.12 96.75,-345.08 96.75,-348.04 96.75,-348.04 96.75,-353.96 96.75,-353.96 96.75,-356.92 93.79,-359.88 90.83,-359.88"/>
<text text-anchor="start" x="55.12" y="-347.32" font-family="Helvetica,sans-Serif" font-size="9.00">dnd.tsx</text>
</a>
</g>
</g>
<!-- src/pages/(root)/dnd.tsx&#45;&gt;src/shared/ui -->
<g id="edge31" class="edge">
<title>src/pages/(root)/dnd.tsx&#45;&gt;src/shared/ui</title>
<path fill="none" stroke="#000000" stroke-width="2" stroke-opacity="0.200000" d="M97.13,-349.21C106.68,-347.24 116.77,-343.39 123.5,-336 136.59,-321.63 116.55,-305.42 131.5,-293 154.36,-274 239.61,-277.97 265.25,-293 286.19,-305.27 297.48,-332.23 302.92,-350.25"/>
<polygon fill="#000000" fill-opacity="0.200000" stroke="#000000" stroke-width="2" stroke-opacity="0.200000" points="300.84,-350.59 304.45,-355.82 304.89,-349.48 300.84,-350.59"/>
</g>
<!-- src/pages/(root)/forms.tsx -->
<g id="node24" class="node">
<title>src/pages/(root)/forms.tsx</title>
<g id="a_node24"><a xlink:href="src/pages/(root)/forms.tsx" xlink:title="forms.tsx">
<path fill="#bbfeff" stroke="black" d="M90.83,-479.88C90.83,-479.88 48.67,-479.88 48.67,-479.88 45.71,-479.88 42.75,-476.92 42.75,-473.96 42.75,-473.96 42.75,-468.04 42.75,-468.04 42.75,-465.08 45.71,-462.12 48.67,-462.12 48.67,-462.12 90.83,-462.12 90.83,-462.12 93.79,-462.12 96.75,-465.08 96.75,-468.04 96.75,-468.04 96.75,-473.96 96.75,-473.96 96.75,-476.92 93.79,-479.88 90.83,-479.88"/>
<text text-anchor="start" x="51.75" y="-467.32" font-family="Helvetica,sans-Serif" font-size="9.00">forms.tsx</text>
</a>
</g>
</g>
<!-- src/pages/(root)/forms.tsx&#45;&gt;src/shared/ui -->
<g id="edge34" class="edge">
<title>src/pages/(root)/forms.tsx&#45;&gt;src/shared/ui</title>
<path fill="none" stroke="#000000" stroke-width="2" stroke-opacity="0.200000" d="M97.04,-469.72C106.82,-467.84 117.09,-463.92 123.5,-456 140.17,-435.4 112.14,-355.1 131.5,-337 153.21,-316.7 237.02,-327.71 265.25,-337 274.93,-340.19 284.22,-346.56 291.58,-352.7"/>
<polygon fill="#000000" fill-opacity="0.200000" stroke="#000000" stroke-width="2" stroke-opacity="0.200000" points="290.11,-354.21 295.99,-356.63 292.91,-351.07 290.11,-354.21"/>
</g>
<!-- src/pages/(root)/forms.tsx&#45;&gt;src/shared/lib -->
<g id="edge33" class="edge">
<title>src/pages/(root)/forms.tsx&#45;&gt;src/shared/lib</title>
<path fill="none" stroke="#000000" stroke-width="2" stroke-opacity="0.200000" d="M97.1,-472.24C106.88,-474.11 117.14,-478.04 123.5,-486 133.71,-498.78 119.62,-621.75 131.5,-633 164.38,-664.14 301.39,-661.06 335.25,-631 371.81,-598.54 374.57,-439.75 374.43,-385.9"/>
<polygon fill="#000000" fill-opacity="0.200000" stroke="#000000" stroke-width="2" stroke-opacity="0.200000" points="376.53,-386.13 374.4,-380.15 372.33,-386.16 376.53,-386.13"/>
</g>
<!-- src/pages/(root)/forms.tsx&#45;&gt;src/features/ErrorMessages.tsx -->
<g id="edge32" class="edge">
<title>src/pages/(root)/forms.tsx&#45;&gt;src/features/ErrorMessages.tsx</title>
<path fill="none" stroke="#000000" stroke-width="2" stroke-opacity="0.200000" d="M97.11,-473.12C106.55,-475.14 116.56,-478.94 123.5,-486 133.18,-495.84 121.63,-506.35 131.5,-516 134.05,-518.49 136.94,-520.6 140.05,-522.37"/>
<polygon fill="#000000" fill-opacity="0.200000" stroke="#000000" stroke-width="2" stroke-opacity="0.200000" points="139.06,-524.22 145.38,-524.85 140.83,-520.41 139.06,-524.22"/>
</g>
<!-- src/pages/(root)/index.tsx -->
<g id="node25" class="node">
<title>src/pages/(root)/index.tsx</title>
<g id="a_node25"><a xlink:href="src/pages/(root)/index.tsx" xlink:title="index.tsx">
<path fill="#bbfeff" stroke="black" d="M90.83,-329.88C90.83,-329.88 48.67,-329.88 48.67,-329.88 45.71,-329.88 42.75,-326.92 42.75,-323.96 42.75,-323.96 42.75,-318.04 42.75,-318.04 42.75,-315.08 45.71,-312.12 48.67,-312.12 48.67,-312.12 90.83,-312.12 90.83,-312.12 93.79,-312.12 96.75,-315.08 96.75,-318.04 96.75,-318.04 96.75,-323.96 96.75,-323.96 96.75,-326.92 93.79,-329.88 90.83,-329.88"/>
<text text-anchor="start" x="51.75" y="-317.32" font-family="Helvetica,sans-Serif" font-size="9.00">index.tsx</text>
</a>
</g>
</g>
<!-- src/pages/(root)/index.tsx&#45;&gt;src/shared/ui -->
<g id="edge37" class="edge">
<title>src/pages/(root)/index.tsx&#45;&gt;src/shared/ui</title>
<path fill="none" stroke="#000000" stroke-width="2" stroke-opacity="0.200000" d="M97.08,-319.42C106.51,-317.58 116.53,-313.96 123.5,-307 133.26,-297.25 120.56,-285.41 131.5,-277 155.07,-258.89 240.21,-260.98 265.25,-277 268.61,-279.15 288.71,-324.91 299.84,-350.7"/>
<polygon fill="#000000" fill-opacity="0.200000" stroke="#000000" stroke-width="2" stroke-opacity="0.200000" points="297.86,-351.43 302.16,-356.11 301.72,-349.77 297.86,-351.43"/>
</g>
<!-- src/pages/(root)/index.tsx&#45;&gt;src/shared/lib -->
<g id="edge36" class="edge">
<title>src/pages/(root)/index.tsx&#45;&gt;src/shared/lib</title>
<path fill="none" stroke="#000000" stroke-width="2" stroke-opacity="0.200000" d="M97.2,-322.16C107,-324.02 117.24,-327.96 123.5,-336 142.14,-359.95 109.73,-587.86 131.5,-609 147.74,-624.77 318.01,-623.67 335.25,-609 369.06,-580.22 373.65,-437.1 374.2,-386.09"/>
<polygon fill="#000000" fill-opacity="0.200000" stroke="#000000" stroke-width="2" stroke-opacity="0.200000" points="376.3,-386.22 374.25,-380.21 372.1,-386.19 376.3,-386.22"/>
</g>
<!-- src/pages/(root)/index.tsx&#45;&gt;src/shared/api -->
<g id="edge35" class="edge">
<title>src/pages/(root)/index.tsx&#45;&gt;src/shared/api</title>
<path fill="none" stroke="#000000" stroke-width="2" stroke-opacity="0.200000" d="M97.2,-322.16C107,-324.02 117.25,-327.96 123.5,-336 133.12,-348.37 120.26,-607.08 131.5,-618 196.43,-681.12 259.75,-668 335.25,-618 416.53,-564.18 435.66,-434.18 440.02,-386.19"/>
<polygon fill="#000000" fill-opacity="0.200000" stroke="#000000" stroke-width="2" stroke-opacity="0.200000" points="442.1,-386.42 440.49,-380.27 437.92,-386.09 442.1,-386.42"/>
</g>
<!-- src/widgets/DarkModeInput.tsx -->
<g id="node26" class="node">
<title>src/widgets/DarkModeInput.tsx</title>
<g id="a_node26"><a xlink:href="src/widgets/DarkModeInput.tsx" xlink:title="DarkModeInput.tsx">
<path fill="#bbfeff" stroke="black" d="M234.71,-131.88C234.71,-131.88 154.04,-131.88 154.04,-131.88 151.08,-131.88 148.12,-128.92 148.12,-125.96 148.12,-125.96 148.12,-120.04 148.12,-120.04 148.12,-117.08 151.08,-114.12 154.04,-114.12 154.04,-114.12 234.71,-114.12 234.71,-114.12 237.67,-114.12 240.62,-117.08 240.62,-120.04 240.62,-120.04 240.62,-125.96 240.62,-125.96 240.62,-128.92 237.67,-131.88 234.71,-131.88"/>
<text text-anchor="start" x="156.12" y="-119.33" font-family="Helvetica,sans-Serif" font-size="9.00">DarkModeInput.tsx</text>
</a>
</g>
</g>
<!-- src/pages/(root)/index.tsx&#45;&gt;src/widgets/DarkModeInput.tsx -->
<g id="edge38" class="edge">
<title>src/pages/(root)/index.tsx&#45;&gt;src/widgets/DarkModeInput.tsx</title>
<path fill="none" stroke="#000000" stroke-width="2" stroke-opacity="0.200000" d="M97.08,-320.31C106.87,-318.63 117.13,-314.89 123.5,-307 135.31,-292.37 119.53,-152.5 131.5,-138 133.91,-135.08 136.79,-132.67 139.97,-130.68"/>
<polygon fill="#000000" fill-opacity="0.200000" stroke="#000000" stroke-width="2" stroke-opacity="0.200000" points="140.67,-132.68 145.12,-128.14 138.81,-128.91 140.67,-132.68"/>
</g>
<!-- src/widgets/RandomNumber.tsx -->
<g id="node27" class="node">
<title>src/widgets/RandomNumber.tsx</title>
<g id="a_node27"><a xlink:href="src/widgets/RandomNumber.tsx" xlink:title="RandomNumber.tsx">
<path fill="#bbfeff" stroke="black" d="M237.33,-101.88C237.33,-101.88 151.42,-101.88 151.42,-101.88 148.46,-101.88 145.5,-98.92 145.5,-95.96 145.5,-95.96 145.5,-90.04 145.5,-90.04 145.5,-87.08 148.46,-84.12 151.42,-84.12 151.42,-84.12 237.33,-84.12 237.33,-84.12 240.29,-84.12 243.25,-87.08 243.25,-90.04 243.25,-90.04 243.25,-95.96 243.25,-95.96 243.25,-98.92 240.29,-101.88 237.33,-101.88"/>
<text text-anchor="start" x="153.5" y="-89.33" font-family="Helvetica,sans-Serif" font-size="9.00">RandomNumber.tsx</text>
</a>
</g>
</g>
<!-- src/pages/(root)/index.tsx&#45;&gt;src/widgets/RandomNumber.tsx -->
<g id="edge39" class="edge">
<title>src/pages/(root)/index.tsx&#45;&gt;src/widgets/RandomNumber.tsx</title>
<path fill="none" stroke="#000000" stroke-width="2" stroke-opacity="0.200000" d="M97.11,-320.33C106.9,-318.65 117.16,-314.91 123.5,-307 137.34,-289.73 117.47,-125.12 131.5,-108 133.32,-105.78 135.41,-103.85 137.7,-102.18"/>
<polygon fill="#000000" fill-opacity="0.200000" stroke="#000000" stroke-width="2" stroke-opacity="0.200000" points="138.3,-104.26 142.44,-99.44 136.2,-100.63 138.3,-104.26"/>
</g>
<!-- src/widgets/StarList.tsx -->
<g id="node28" class="node">
<title>src/widgets/StarList.tsx</title>
<g id="a_node28"><a xlink:href="src/widgets/StarList.tsx" xlink:title="StarList.tsx">
<path fill="#bbfeff" stroke="black" d="M218.58,-71.88C218.58,-71.88 170.17,-71.88 170.17,-71.88 167.21,-71.88 164.25,-68.92 164.25,-65.96 164.25,-65.96 164.25,-60.04 164.25,-60.04 164.25,-57.08 167.21,-54.12 170.17,-54.12 170.17,-54.12 218.58,-54.12 218.58,-54.12 221.54,-54.12 224.5,-57.08 224.5,-60.04 224.5,-60.04 224.5,-65.96 224.5,-65.96 224.5,-68.92 221.54,-71.88 218.58,-71.88"/>
<text text-anchor="start" x="172.25" y="-59.33" font-family="Helvetica,sans-Serif" font-size="9.00">StarList.tsx</text>
</a>
</g>
</g>
<!-- src/pages/(root)/index.tsx&#45;&gt;src/widgets/StarList.tsx -->
<g id="edge40" class="edge">
<title>src/pages/(root)/index.tsx&#45;&gt;src/widgets/StarList.tsx</title>
<path fill="none" stroke="#000000" stroke-width="2" stroke-opacity="0.200000" d="M97.13,-320.35C106.93,-318.67 117.18,-314.93 123.5,-307 139.37,-287.09 115.41,-97.73 131.5,-78 137.37,-70.79 146.07,-66.7 155.1,-64.46"/>
<polygon fill="#000000" fill-opacity="0.200000" stroke="#000000" stroke-width="2" stroke-opacity="0.200000" points="155.29,-66.56 160.8,-63.39 154.51,-62.43 155.29,-66.56"/>
</g>
<!-- src/widgets/DarkModeInput.tsx&#45;&gt;src/shared/ui -->
<g id="edge57" class="edge">
<title>src/widgets/DarkModeInput.tsx&#45;&gt;src/shared/ui</title>
<path fill="none" stroke="#000000" stroke-width="2" stroke-opacity="0.200000" d="M241.06,-124.87C250.09,-127.27 258.77,-131.32 265.25,-138 280.12,-153.33 298.92,-298.87 305.14,-350.19"/>
<polygon fill="#000000" fill-opacity="0.200000" stroke="#000000" stroke-width="2" stroke-opacity="0.200000" points="303.03,-350.17 305.83,-355.88 307.2,-349.67 303.03,-350.17"/>
</g>
<!-- src/widgets/DarkModeInput.tsx&#45;&gt;src/shared/lib -->
<g id="edge56" class="edge">
<title>src/widgets/DarkModeInput.tsx&#45;&gt;src/shared/lib</title>
<path fill="none" stroke="#000000" stroke-width="2" stroke-opacity="0.200000" d="M240.87,-129.28C249.24,-131.39 257.71,-134.22 265.25,-138 302.15,-156.47 314.02,-163.61 335.25,-199 364.73,-248.14 371.93,-317.62 373.69,-350.04"/>
<polygon fill="#000000" fill-opacity="0.200000" stroke="#000000" stroke-width="2" stroke-opacity="0.200000" points="371.58,-349.92 373.94,-355.82 375.78,-349.73 371.58,-349.92"/>
</g>
<!-- src/widgets/RandomNumber.tsx&#45;&gt;src/shared/ui -->
<g id="edge65" class="edge">
<title>src/widgets/RandomNumber.tsx&#45;&gt;src/shared/ui</title>
<path fill="none" stroke="#000000" stroke-width="2" stroke-opacity="0.200000" d="M243.68,-95.49C251.79,-97.96 259.44,-101.88 265.25,-108 273.68,-116.87 297.39,-292.78 304.92,-350.11"/>
<polygon fill="#000000" fill-opacity="0.200000" stroke="#000000" stroke-width="2" stroke-opacity="0.200000" points="302.81,-350.13 305.67,-355.81 306.97,-349.59 302.81,-350.13"/>
</g>
<!-- src/widgets/RandomNumber.tsx&#45;&gt;src/shared/lib -->
<g id="edge64" class="edge">
<title>src/widgets/RandomNumber.tsx&#45;&gt;src/shared/lib</title>
<path fill="none" stroke="#000000" stroke-width="2" stroke-opacity="0.200000" d="M243.66,-95.61C274.91,-100.05 313.66,-111.26 335.25,-139 360.92,-171.98 370.59,-301.66 373.34,-349.84"/>
<polygon fill="#000000" fill-opacity="0.200000" stroke="#000000" stroke-width="2" stroke-opacity="0.200000" points="371.24,-349.92 373.66,-355.8 375.43,-349.7 371.24,-349.92"/>
</g>
<!-- src/widgets/RandomNumber.tsx&#45;&gt;src/shared/api -->
<g id="edge63" class="edge">
<title>src/widgets/RandomNumber.tsx&#45;&gt;src/shared/api</title>
<path fill="none" stroke="#000000" stroke-width="2" stroke-opacity="0.200000" d="M239.75,-83.63C269.47,-79.94 307.98,-80.45 335.25,-100 419.89,-160.69 436.97,-299.88 440.4,-349.78"/>
<polygon fill="#000000" fill-opacity="0.200000" stroke="#000000" stroke-width="2" stroke-opacity="0.200000" points="438.3,-349.88 440.75,-355.74 442.49,-349.63 438.3,-349.88"/>
</g>
<!-- src/widgets/StarList.tsx&#45;&gt;src/shared/ui -->
<g id="edge67" class="edge">
<title>src/widgets/StarList.tsx&#45;&gt;src/shared/ui</title>
<path fill="none" stroke="#000000" stroke-width="2" stroke-opacity="0.200000" d="M224.98,-61.99C239.1,-63.15 255.08,-67.12 265.25,-78 302.28,-117.62 306.76,-292.38 307.23,-349.71"/>
<polygon fill="#000000" fill-opacity="0.200000" stroke="#000000" stroke-width="2" stroke-opacity="0.200000" points="305.13,-349.7 307.26,-355.69 309.33,-349.68 305.13,-349.7"/>
</g>
<!-- src/widgets/StarList.tsx&#45;&gt;src/shared/api -->
<g id="edge66" class="edge">
<title>src/widgets/StarList.tsx&#45;&gt;src/shared/api</title>
<path fill="none" stroke="#000000" stroke-width="2" stroke-opacity="0.200000" d="M224.91,-59.38C271.68,-55.54 361.63,-56.2 402.25,-111 430.53,-149.15 438.67,-298.24 440.67,-350.1"/>
<polygon fill="#000000" fill-opacity="0.200000" stroke="#000000" stroke-width="2" stroke-opacity="0.200000" points="438.56,-349.91 440.88,-355.84 442.76,-349.76 438.56,-349.91"/>
</g>
<!-- src/pages/(root)/posts/_layout.tsx -->
<g id="node29" class="node">
<title>src/pages/(root)/posts/_layout.tsx</title>
<g id="a_node29"><a xlink:href="src/pages/(root)/posts/_layout.tsx" xlink:title="no&#45;orphans">
<path fill="#ccffcc" stroke="red" d="M93.58,-277.88C93.58,-277.88 45.92,-277.88 45.92,-277.88 42.96,-277.88 40,-274.92 40,-271.96 40,-271.96 40,-266.04 40,-266.04 40,-263.08 42.96,-260.12 45.92,-260.12 45.92,-260.12 93.58,-260.12 93.58,-260.12 96.54,-260.12 99.5,-263.08 99.5,-266.04 99.5,-266.04 99.5,-271.96 99.5,-271.96 99.5,-274.92 96.54,-277.88 93.58,-277.88"/>
<text text-anchor="start" x="48" y="-265.32" font-family="Helvetica,sans-Serif" font-size="9.00" fill="red">_layout.tsx</text>
</a>
</g>
</g>
<!-- src/pages/(root)/upload.tsx -->
<g id="node30" class="node">
<title>src/pages/(root)/upload.tsx</title>
<g id="a_node30"><a xlink:href="src/pages/(root)/upload.tsx" xlink:title="upload.tsx">
<path fill="#bbfeff" stroke="black" d="M92.83,-509.88C92.83,-509.88 46.67,-509.88 46.67,-509.88 43.71,-509.88 40.75,-506.92 40.75,-503.96 40.75,-503.96 40.75,-498.04 40.75,-498.04 40.75,-495.08 43.71,-492.12 46.67,-492.12 46.67,-492.12 92.83,-492.12 92.83,-492.12 95.79,-492.12 98.75,-495.08 98.75,-498.04 98.75,-498.04 98.75,-503.96 98.75,-503.96 98.75,-506.92 95.79,-509.88 92.83,-509.88"/>
<text text-anchor="start" x="48.75" y="-497.32" font-family="Helvetica,sans-Serif" font-size="9.00">upload.tsx</text>
</a>
</g>
</g>
<!-- src/pages/(root)/upload.tsx&#45;&gt;src/shared/ui -->
<g id="edge44" class="edge">
<title>src/pages/(root)/upload.tsx&#45;&gt;src/shared/ui</title>
<path fill="none" stroke="#000000" stroke-width="2" stroke-opacity="0.200000" d="M99,-499.35C108.19,-497.34 117.54,-493.42 123.5,-486 142.31,-462.57 109.63,-371.61 131.5,-351 153.13,-330.61 236.08,-345.32 265.25,-351 270.39,-352 275.71,-353.63 280.75,-355.5"/>
<polygon fill="#000000" fill-opacity="0.200000" stroke="#000000" stroke-width="2" stroke-opacity="0.200000" points="279.75,-357.36 286.1,-357.66 281.32,-353.47 279.75,-357.36"/>
</g>
<!-- src/pages/(root)/upload.tsx&#45;&gt;src/shared/lib -->
<g id="edge43" class="edge">
<title>src/pages/(root)/upload.tsx&#45;&gt;src/shared/lib</title>
<path fill="none" stroke="#000000" stroke-width="2" stroke-opacity="0.200000" d="M98.99,-502.66C108.18,-504.67 117.53,-508.58 123.5,-516 141.78,-538.73 110.26,-627.02 131.5,-647 164.48,-678.03 301.5,-675.19 335.25,-645 373.75,-610.56 375.2,-442.09 374.58,-386.12"/>
<polygon fill="#000000" fill-opacity="0.200000" stroke="#000000" stroke-width="2" stroke-opacity="0.200000" points="376.69,-386.3 374.5,-380.33 372.49,-386.36 376.69,-386.3"/>
</g>
<!-- src/pages/(root)/upload.tsx&#45;&gt;src/shared/api -->
<g id="edge42" class="edge">
<title>src/pages/(root)/upload.tsx&#45;&gt;src/shared/api</title>
<path fill="none" stroke="#000000" stroke-width="2" stroke-opacity="0.200000" d="M99.02,-502.64C108.2,-504.65 117.55,-508.56 123.5,-516 133.58,-528.6 119.78,-649.91 131.5,-661 174.68,-701.86 206.55,-670.4 265.25,-661 336.01,-649.67 367.6,-638.72 402.25,-576 437.32,-512.53 441.49,-423.3 441.57,-385.75"/>
<polygon fill="#000000" fill-opacity="0.200000" stroke="#000000" stroke-width="2" stroke-opacity="0.200000" points="443.67,-385.99 441.53,-380 439.47,-386.02 443.67,-385.99"/>
</g>
<!-- src/pages/(root)/upload.tsx&#45;&gt;src/features/ErrorMessages.tsx -->
<g id="edge41" class="edge">
<title>src/pages/(root)/upload.tsx&#45;&gt;src/features/ErrorMessages.tsx</title>
<path fill="none" stroke="#000000" stroke-width="2" stroke-opacity="0.200000" d="M99.18,-508.05C109.37,-510.56 120.95,-513.42 131.5,-516 136.2,-517.15 141.1,-518.34 145.99,-519.53"/>
<polygon fill="#000000" fill-opacity="0.200000" stroke="#000000" stroke-width="2" stroke-opacity="0.200000" points="145.48,-521.57 151.81,-520.95 146.48,-517.49 145.48,-521.57"/>
</g>
<!-- src/pages/(root)/widgets.tsx -->
<g id="node31" class="node">
<title>src/pages/(root)/widgets.tsx</title>
<g id="a_node31"><a xlink:href="src/pages/(root)/widgets.tsx" xlink:title="widgets.tsx">
<path fill="#bbfeff" stroke="black" d="M94.33,-389.88C94.33,-389.88 45.17,-389.88 45.17,-389.88 42.21,-389.88 39.25,-386.92 39.25,-383.96 39.25,-383.96 39.25,-378.04 39.25,-378.04 39.25,-375.08 42.21,-372.12 45.17,-372.12 45.17,-372.12 94.33,-372.12 94.33,-372.12 97.29,-372.12 100.25,-375.08 100.25,-378.04 100.25,-378.04 100.25,-383.96 100.25,-383.96 100.25,-386.92 97.29,-389.88 94.33,-389.88"/>
<text text-anchor="start" x="47.25" y="-377.32" font-family="Helvetica,sans-Serif" font-size="9.00">widgets.tsx</text>
</a>
</g>
</g>
<!-- src/pages/(root)/widgets.tsx&#45;&gt;src/shared/ui -->
<g id="edge47" class="edge">
<title>src/pages/(root)/widgets.tsx&#45;&gt;src/shared/ui</title>
<path fill="none" stroke="#000000" stroke-width="2" stroke-opacity="0.200000" d="M100.6,-378.62C109.13,-376.48 117.68,-372.68 123.5,-366 140.3,-346.71 112.19,-325.78 131.5,-309 153.93,-289.5 238.83,-295.38 265.25,-309 282.09,-317.68 293.66,-336.59 300.33,-350.68"/>
<polygon fill="#000000" fill-opacity="0.200000" stroke="#000000" stroke-width="2" stroke-opacity="0.200000" points="298.29,-351.27 302.63,-355.92 302.14,-349.58 298.29,-351.27"/>
</g>
<!-- src/pages/(root)/widgets.tsx&#45;&gt;src/features/ColorWithText.tsx -->
<g id="edge45" class="edge">
<title>src/pages/(root)/widgets.tsx&#45;&gt;src/features/ColorWithText.tsx</title>
<path fill="none" stroke="#000000" stroke-width="2" stroke-opacity="0.200000" d="M100.72,-388.43C110.52,-390.85 121.48,-393.55 131.5,-396 136.2,-397.15 141.1,-398.34 145.99,-399.53"/>
<polygon fill="#000000" fill-opacity="0.200000" stroke="#000000" stroke-width="2" stroke-opacity="0.200000" points="145.48,-401.57 151.81,-400.95 146.48,-397.49 145.48,-401.57"/>
</g>
<!-- src/pages/(root)/widgets.tsx&#45;&gt;src/features/RangeWithNumber.tsx -->
<g id="edge46" class="edge">
<title>src/pages/(root)/widgets.tsx&#45;&gt;src/features/RangeWithNumber.tsx</title>
<path fill="none" stroke="#000000" stroke-width="2" stroke-opacity="0.200000" d="M100.75,-381C109.94,-381 120.42,-381 130.95,-381"/>
<polygon fill="#000000" fill-opacity="0.200000" stroke="#000000" stroke-width="2" stroke-opacity="0.200000" points="130.74,-383.1 136.74,-381 130.74,-378.9 130.74,-383.1"/>
</g>
<!-- src/pages/(root)/widgets.tsx&#45;&gt;src/widgets/DarkModeInput.tsx -->
<g id="edge48" class="edge">
<title>src/pages/(root)/widgets.tsx&#45;&gt;src/widgets/DarkModeInput.tsx</title>
<path fill="none" stroke="#000000" stroke-width="2" stroke-opacity="0.200000" d="M100.48,-379.11C109.22,-377.02 117.92,-373.12 123.5,-366 139.13,-346.04 115.48,-157.65 131.5,-138 133.9,-135.06 136.76,-132.64 139.93,-130.65"/>
<polygon fill="#000000" fill-opacity="0.200000" stroke="#000000" stroke-width="2" stroke-opacity="0.200000" points="140.63,-132.65 145.07,-128.1 138.76,-128.89 140.63,-132.65"/>
</g>
<!-- src/widgets/FruitCombobox.tsx -->
<g id="node32" class="node">
<title>src/widgets/FruitCombobox.tsx</title>
<g id="a_node32"><a xlink:href="src/widgets/FruitCombobox.tsx" xlink:title="FruitCombobox.tsx">
<path fill="#bbfeff" stroke="black" d="M234.71,-161.88C234.71,-161.88 154.04,-161.88 154.04,-161.88 151.08,-161.88 148.12,-158.92 148.12,-155.96 148.12,-155.96 148.12,-150.04 148.12,-150.04 148.12,-147.08 151.08,-144.12 154.04,-144.12 154.04,-144.12 234.71,-144.12 234.71,-144.12 237.67,-144.12 240.62,-147.08 240.62,-150.04 240.62,-150.04 240.62,-155.96 240.62,-155.96 240.62,-158.92 237.67,-161.88 234.71,-161.88"/>
<text text-anchor="start" x="156.12" y="-149.32" font-family="Helvetica,sans-Serif" font-size="9.00">FruitCombobox.tsx</text>
</a>
</g>
</g>
<!-- src/pages/(root)/widgets.tsx&#45;&gt;src/widgets/FruitCombobox.tsx -->
<g id="edge49" class="edge">
<title>src/pages/(root)/widgets.tsx&#45;&gt;src/widgets/FruitCombobox.tsx</title>
<path fill="none" stroke="#000000" stroke-width="2" stroke-opacity="0.200000" d="M100.73,-379.03C109.38,-376.92 117.96,-373.03 123.5,-366 137.12,-348.7 117.54,-185.03 131.5,-168 133.9,-165.07 136.78,-162.65 139.95,-160.67"/>
<polygon fill="#000000" fill-opacity="0.200000" stroke="#000000" stroke-width="2" stroke-opacity="0.200000" points="140.65,-162.66 145.09,-158.12 138.78,-158.9 140.65,-162.66"/>
</g>
<!-- src/widgets/FruitCombobox.tsx&#45;&gt;src/shared/ui -->
<g id="edge58" class="edge">
<title>src/widgets/FruitCombobox.tsx&#45;&gt;src/shared/ui</title>
<path fill="none" stroke="#000000" stroke-width="2" stroke-opacity="0.200000" d="M240.93,-155C249.97,-157.39 258.68,-161.41 265.25,-168 290.85,-193.71 302.35,-306 305.94,-350.12"/>
<polygon fill="#000000" fill-opacity="0.200000" stroke="#000000" stroke-width="2" stroke-opacity="0.200000" points="303.83,-350.05 306.39,-355.87 308.02,-349.73 303.83,-350.05"/>
</g>
<!-- src/pages/404.tsx -->
<g id="node33" class="node">
<title>src/pages/404.tsx</title>
<g id="a_node33"><a xlink:href="src/pages/404.tsx" xlink:title="no&#45;orphans">
<path fill="#ccffcc" stroke="red" d="M90.83,-591.88C90.83,-591.88 48.67,-591.88 48.67,-591.88 45.71,-591.88 42.75,-588.92 42.75,-585.96 42.75,-585.96 42.75,-580.04 42.75,-580.04 42.75,-577.08 45.71,-574.12 48.67,-574.12 48.67,-574.12 90.83,-574.12 90.83,-574.12 93.79,-574.12 96.75,-577.08 96.75,-580.04 96.75,-580.04 96.75,-585.96 96.75,-585.96 96.75,-588.92 93.79,-591.88 90.83,-591.88"/>
<text text-anchor="start" x="55.12" y="-579.33" font-family="Helvetica,sans-Serif" font-size="9.00" fill="red">404.tsx</text>
</a>
</g>
</g>
<!-- src/pages/_app.tsx -->
<g id="node34" class="node">
<title>src/pages/_app.tsx</title>
<g id="a_node34"><a xlink:href="src/pages/_app.tsx" xlink:title="_app.tsx">
<path fill="#bbfeff" stroke="black" d="M90.83,-621.88C90.83,-621.88 48.67,-621.88 48.67,-621.88 45.71,-621.88 42.75,-618.92 42.75,-615.96 42.75,-615.96 42.75,-610.04 42.75,-610.04 42.75,-607.08 45.71,-604.12 48.67,-604.12 48.67,-604.12 90.83,-604.12 90.83,-604.12 93.79,-604.12 96.75,-607.08 96.75,-610.04 96.75,-610.04 96.75,-615.96 96.75,-615.96 96.75,-618.92 93.79,-621.88 90.83,-621.88"/>
<text text-anchor="start" x="52.5" y="-609.33" font-family="Helvetica,sans-Serif" font-size="9.00">_app.tsx</text>
</a>
</g>
</g>
<!-- src/pages/_app.tsx&#45;&gt;src/shared/lib -->
<g id="edge50" class="edge">
<title>src/pages/_app.tsx&#45;&gt;src/shared/lib</title>
<path fill="none" stroke="#000000" stroke-width="2" stroke-opacity="0.200000" d="M76.1,-621.94C85.3,-636.33 105.66,-664.14 131.5,-675 173.24,-692.54 301.69,-703.4 335.25,-673 356.7,-653.57 369.8,-448.12 373.3,-385.81"/>
<polygon fill="#000000" fill-opacity="0.200000" stroke="#000000" stroke-width="2" stroke-opacity="0.200000" points="375.38,-386.22 373.61,-380.12 371.19,-385.99 375.38,-386.22"/>
</g>
<!-- src/pages/_app.tsx&#45;&gt;src/widgets/AuthGuard.tsx -->
<g id="edge51" class="edge">
<title>src/pages/_app.tsx&#45;&gt;src/widgets/AuthGuard.tsx</title>
<path fill="none" stroke="#000000" stroke-width="2" stroke-opacity="0.200000" d="M97.18,-611.83C106.98,-609.96 117.22,-606.02 123.5,-598 131.62,-587.62 128.69,-373.87 131.5,-361 142.38,-311.16 169.37,-256.87 183.84,-230.02"/>
<polygon fill="#000000" fill-opacity="0.200000" stroke="#000000" stroke-width="2" stroke-opacity="0.200000" points="185.57,-231.23 186.61,-224.96 181.89,-229.21 185.57,-231.23"/>
</g>
</g>
</svg>
